<?xml version="1.0" encoding="UTF-8"?>
<!DOCTYPE svg PUBLIC "-//W3C//DTD SVG 1.1//EN" "http://www.w3.org/Graphics/SVG/1.1/DTD/svg11.dtd">
<svg xmlns="http://www.w3.org/2000/svg" version="1.1" width="96px" height="96px" style="shape-rendering:geometricPrecision; text-rendering:geometricPrecision; image-rendering:optimizeQuality; fill-rule:evenodd; clip-rule:evenodd" xmlns:xlink="http://www.w3.org/1999/xlink">
<g><path style="opacity:0.851" fill="#2b65ff" d="M 60.5,24.5 C 58.8333,24.5 57.1667,24.5 55.5,24.5C 57.4867,20.5266 59.4867,16.5266 61.5,12.5C 61.1667,12.1667 60.8333,11.8333 60.5,11.5C 56.1168,16.213 51.7834,20.8797 47.5,25.5C 46.5,24.8333 45.5,24.1667 44.5,23.5C 48.2882,18.5401 52.2882,13.7068 56.5,9C 59.4816,8.50204 62.4816,8.33537 65.5,8.5C 64.9946,14.1822 63.3279,19.5155 60.5,24.5 Z"/></g>
<g><path style="opacity:0.894" fill="#5055ff" d="M 55.5,24.5 C 57.1667,24.5 58.8333,24.5 60.5,24.5C 58.8466,27.8068 57.1799,31.1401 55.5,34.5C 61.9875,35.1668 68.3208,35.8334 74.5,36.5C 66.5,36.5 58.5,36.5 50.5,36.5C 52.1693,32.4956 53.8359,28.4956 55.5,24.5 Z"/></g>
<g><path style="opacity:0.826" fill="#8bc2ff" d="M 45.5,38.5 C 43.8333,38.5 42.1667,38.5 40.5,38.5C 42.4302,34.8998 45.0969,31.8998 48.5,29.5C 49.0178,32.843 48.0178,35.843 45.5,38.5 Z"/></g>
<g><path style="opacity:0.908" fill="#5b51ff" d="M 50.5,36.5 C 58.5,36.5 66.5,36.5 74.5,36.5C 75.9468,37.1342 76.6134,38.3009 76.5,40C 76.472,41.0698 76.1386,41.9032 75.5,42.5C 73.9008,41.438 72.2341,41.438 70.5,42.5C 70.9528,41.5416 71.6195,40.7083 72.5,40C 72.1667,39.6667 71.8333,39.3333 71.5,39C 64.1441,38.8313 56.8108,38.3313 49.5,37.5C 49.6236,36.8933 49.9569,36.56 50.5,36.5 Z"/></g>
<g><path style="opacity:0.743" fill="#5553ff" d="M 44.5,23.5 C 45.5,24.1667 46.5,24.8333 47.5,25.5C 42.8431,31.489 37.8431,37.1557 32.5,42.5C 31.4324,41.5655 30.099,41.2322 28.5,41.5C 33.4908,35.177 38.8241,29.177 44.5,23.5 Z"/></g>
<g><path style="opacity:0.975" fill="#a1bbff" d="M 40.5,38.5 C 42.1667,38.5 43.8333,38.5 45.5,38.5C 44.0015,40.2578 43.6681,42.0912 44.5,44C 50.9165,43.8715 56.9165,44.7048 62.5,46.5C 52.8333,46.5 43.1667,46.5 33.5,46.5C 35.8432,43.7928 38.1765,41.1261 40.5,38.5 Z"/></g>
<g><path style="opacity:0.956" fill="#b1b7ff" d="M 33.5,46.5 C 43.1667,46.5 52.8333,46.5 62.5,46.5C 60.5419,49.7915 58.2085,52.7915 55.5,55.5C 54.0048,55.0113 52.6715,54.3446 51.5,53.5C 51.5858,52.5041 51.2524,51.6708 50.5,51C 44.5092,50.5005 38.5092,50.3338 32.5,50.5C 32.2322,48.901 32.5655,47.5676 33.5,46.5 Z"/></g>
<g><path style="opacity:0.836" fill="#7a42ff" d="M 75.5,42.5 C 70.8431,48.489 65.8431,54.1557 60.5,59.5C 59.1667,59.5 57.8333,59.5 56.5,59.5C 60.9302,53.6404 65.5968,47.9737 70.5,42.5C 72.2341,41.438 73.9008,41.438 75.5,42.5 Z"/></g>
<g><path style="opacity:1" fill="#7d41ff" d="M 28.5,41.5 C 30.099,41.2322 31.4324,41.5655 32.5,42.5C 29.3802,46.792 26.0469,50.9587 22.5,55C 30.0009,56.3001 37.6676,56.9667 45.5,57C 44.9341,57.9947 44.2674,58.828 43.5,59.5C 42.1667,59.5 40.8333,59.5 39.5,59.5C 33.1579,59.6662 26.8246,59.4995 20.5,59C 18.6041,57.1917 18.1041,55.025 19,52.5C 22.0316,48.641 25.1983,44.9743 28.5,41.5 Z"/></g>
<g><path style="opacity:0.848" fill="#d5b7ff" d="M 51.5,53.5 C 52.6715,54.3446 54.0048,55.0113 55.5,55.5C 53.0967,59.2849 50.43,62.9516 47.5,66.5C 46.5,66.1667 45.8333,65.5 45.5,64.5C 47.2742,60.6112 49.2742,56.9446 51.5,53.5 Z"/></g>
<g><path style="opacity:0.76" fill="#9934ff" d="M 56.5,59.5 C 57.8333,59.5 59.1667,59.5 60.5,59.5C 56.5336,64.801 52.2003,69.801 47.5,74.5C 46.4324,73.5655 45.099,73.2322 43.5,73.5C 47.3779,68.4113 51.7112,63.7446 56.5,59.5 Z"/></g>
<g><path style="opacity:0.796" fill="#a033ff" d="M 39.5,59.5 C 40.8333,59.5 42.1667,59.5 43.5,59.5C 41.3443,65.8043 38.6776,71.8043 35.5,77.5C 34.5,76.8333 33.5,76.1667 32.5,75.5C 34.8345,70.1616 37.1679,64.8283 39.5,59.5 Z"/></g>
<g><path style="opacity:0.92" fill="#bb27ff" d="M 43.5,73.5 C 45.099,73.2322 46.4324,73.5655 47.5,74.5C 44.7146,78.4579 41.7146,82.2912 38.5,86C 35.5184,86.498 32.5184,86.6646 29.5,86.5C 29.1257,82.3526 30.1257,78.6859 32.5,75.5C 33.5,76.1667 34.5,76.8333 35.5,77.5C 35.1231,79.258 34.4565,80.9246 33.5,82.5C 37.2082,80.4886 40.5416,77.4886 43.5,73.5 Z"/></g>
</svg>
